<svg xmlns="http://www.w3.org/2000/svg" viewBox="0 0 240 48" fill="none">
  <!-- Icon: Stylized building + checkmark -->
  <g transform="translate(0, 4)">
    <rect x="4" y="8" width="28" height="32" rx="3" fill="#14b8a6"/>
    <rect x="14" y="0" width="12" height="40" rx="2" fill="#0d9488"/>
    <rect x="8" y="14" width="4" height="4" rx="1" fill="white" opacity="0.7"/>
    <rect x="8" y="22" width="4" height="4" rx="1" fill="white" opacity="0.7"/>
    <rect x="8" y="30" width="4" height="4" rx="1" fill="white" opacity="0.5"/>
    <rect x="18" y="6" width="4" height="4" rx="1" fill="white" opacity="0.7"/>
    <rect x="18" y="14" width="4" height="4" rx="1" fill="white" opacity="0.7"/>
    <rect x="18" y="22" width="4" height="4" rx="1" fill="white" opacity="0.7"/>
    <rect x="18" y="30" width="4" height="4" rx="1" fill="white" opacity="0.5"/>
    <circle cx="30" cy="10" r="9" fill="#f97316"/>
    <path d="M25.5 10L28.5 13L35 6.5" stroke="white" stroke-width="2.5" stroke-linecap="round" stroke-linejoin="round"/>
  </g>
  <text x="48" y="22" font-family="system-ui, -apple-system, sans-serif" font-size="18" font-weight="700" fill="#ffffff" letter-spacing="-0.02em">Acquisition</text>
  <text x="48" y="40" font-family="system-ui, -apple-system, sans-serif" font-size="14" font-weight="500" fill="#2dd4bf" letter-spacing="0.06em">CHECKLIST</text>
</svg>
